<svg width="200" height="200" viewBox="0 0 200 200" fill="none" xmlns="http://www.w3.org/2000/svg">
<g clip-path="url(#clip0_115_18)">
<rect width="200" height="200" rx="100" fill="url(#paint0_linear_115_18)"/>
<path d="M203.189 121.812H141.251V75.8514C145.82 84.369 185.264 122.015 194.275 125.621C194.571 125.74 194.889 125.8 195.209 125.797C195.529 125.795 195.846 125.729 196.141 125.605C196.436 125.481 196.703 125.3 196.927 125.073C197.152 124.846 197.329 124.578 197.449 124.283C197.569 123.988 197.63 123.672 197.627 123.354C197.624 123.036 197.559 122.721 197.434 122.428C197.308 122.136 197.127 121.87 196.898 121.647C196.67 121.424 196.4 121.248 196.103 121.128C189.335 118.429 151.539 82.7727 147.465 76.7633C143.391 70.7538 141.226 63.6675 141.251 56.4219C141.251 55.7796 140.994 55.1635 140.537 54.7094C140.08 54.2552 139.46 54 138.814 54C138.167 54 137.547 54.2552 137.09 54.7094C136.633 55.1635 136.376 55.7796 136.376 56.4219C136.376 66.0567 132.524 75.2969 125.667 82.1097C118.81 88.9226 109.511 92.75 99.8136 92.75C90.1166 92.75 80.8168 88.9226 73.96 82.1097C67.1032 75.2969 63.2511 66.0567 63.2511 56.4219C63.2511 55.7796 62.9943 55.1635 62.5371 54.7094C62.08 54.2552 61.46 54 60.8136 54C60.1671 54 59.5471 54.2552 59.09 54.7094C58.6329 55.1635 58.3761 55.7796 58.3761 56.4219C58.3973 63.6645 56.2308 70.7467 52.1568 76.7526C48.0829 82.7585 11.289 118.412 4.52451 121.11C3.92491 121.351 3.44617 121.819 3.19361 122.41C2.94106 123.002 2.93536 123.669 3.17779 124.265C3.42021 124.86 3.89089 125.336 4.48629 125.587C5.08169 125.838 5.75303 125.844 6.35263 125.603C15.3633 121.996 53.807 84.3509 58.3761 75.8332V121.812H-1.56143C-2.2079 121.812 -2.82788 122.068 -3.285 122.522C-3.74212 122.976 -3.99893 123.592 -3.99893 124.234C-3.99893 124.877 -3.74212 125.493 -3.285 125.947C-2.82788 126.401 -2.2079 126.656 -1.56143 126.656H58.3761V143.609C58.3761 144.252 58.6329 144.868 59.09 145.322C59.5471 145.776 60.1671 146.031 60.8136 146.031C61.46 146.031 62.08 145.776 62.5371 145.322C62.9943 144.868 63.2511 144.252 63.2511 143.609V126.656H136.376V143.609C136.376 144.252 136.633 144.868 137.09 145.322C137.547 145.776 138.167 146.031 138.814 146.031C139.46 146.031 140.08 145.776 140.537 145.322C140.994 144.868 141.251 144.252 141.251 143.609V126.656H203.189C203.835 126.656 204.455 126.401 204.912 125.947C205.369 125.493 205.626 124.877 205.626 124.234C205.626 123.592 205.369 122.976 204.912 122.522C204.455 122.068 203.835 121.812 203.189 121.812ZM112.001 95.7773V121.812H87.6261V95.7773C95.5673 98.2054 104.06 98.2054 112.001 95.7773ZM63.2511 75.7969C67.569 83.8135 74.4212 90.1962 82.7511 93.9609V121.812H63.2511V75.7969ZM116.876 121.812V93.9609C125.206 90.1962 132.058 83.8135 136.376 75.7969V121.812H116.876Z" fill="white"/>
<path d="M43 91.5V123M160 91.5V123" stroke="white" stroke-width="4"/>
</g>
<defs>
<linearGradient id="paint0_linear_115_18" x1="100" y1="0" x2="100" y2="200" gradientUnits="userSpaceOnUse">
<stop stop-color="#FF7B00"/>
<stop offset="0.495618" stop-color="#D9D372"/>
<stop offset="1" stop-color="#3CAD03"/>
</linearGradient>
<clipPath id="clip0_115_18">
<rect width="200" height="200" rx="100" fill="white"/>
</clipPath>
</defs>
</svg>
